<svg width="100" height="100" viewBox="0 0 100 100" fill="none" xmlns="http://www.w3.org/2000/svg">
<circle cx="50" cy="50" r="47.5" stroke="#EE2B7A" stroke-width="5"/>
<path d="M50.5 38.8334H40.2917C37.8708 38.8334 35.9167 40.7875 35.9167 43.2084V54.875C35.9167 57.2959 37.8708 59.25 40.2917 59.25L38.8333 60.7084V62.1667H40.2917L43.2083 59.2063L46.125 59.25V51.9584H38.8333V41.7209L51.9583 41.75V44.6667H54.875V43.2084C54.875 40.7875 52.9208 38.8334 50.5 38.8334ZM40.2917 53.4167C41.0937 53.4167 41.75 54.073 41.75 54.875C41.75 55.6771 41.0937 56.3334 40.2917 56.3334C39.4896 56.3334 38.8333 55.6771 38.8333 54.875C38.8333 54.073 39.4896 53.4167 40.2917 53.4167ZM62.9979 47.0875C62.7937 46.5042 62.2396 46.125 61.5833 46.125H51.0979C50.4271 46.125 49.8875 46.5042 49.6687 47.0875L47.5833 53.0813L47.5979 61.1167C47.5979 61.6709 48.05 62.1667 48.6042 62.1667H49.5083C50.0625 62.1667 50.5 61.6125 50.5 61.0584V59.25H62.1667V61.0584C62.1667 61.6125 62.6187 62.1667 63.1729 62.1667H64.0625C64.6167 62.1667 65.0687 61.6709 65.0687 61.1167L65.0833 59.1188V53.0813L62.9979 47.0875V47.0875ZM51.0979 47.5834H61.5833L63.0854 51.9584H49.5958L51.0979 47.5834V47.5834ZM50.5 56.3334C49.6979 56.3334 49.0417 55.6771 49.0417 54.875C49.0417 54.073 49.6979 53.4167 50.5 53.4167C51.3021 53.4167 51.9583 54.073 51.9583 54.875C51.9583 55.6771 51.3021 56.3334 50.5 56.3334ZM62.1667 56.3334C61.3646 56.3334 60.7083 55.6771 60.7083 54.875C60.7083 54.073 61.3646 53.4167 62.1667 53.4167C62.9687 53.4167 63.625 54.073 63.625 54.875C63.625 55.6771 62.9687 56.3334 62.1667 56.3334Z" fill="white"/>
</svg>
