<svg width="106" height="106" viewBox="0 0 106 106" fill="none" xmlns="http://www.w3.org/2000/svg">
<rect width="106" height="106" fill="#772D8B"/>
<path d="M53 23.8334C40.1083 23.8334 29.6667 25.2917 29.6667 35.5V63.2084C29.6667 68.8375 34.2458 73.4167 39.875 73.4167L35.5 77.7917V79.25H70.5V77.7917L66.125 73.4167C71.7542 73.4167 76.3333 68.8375 76.3333 63.2084V35.5C76.3333 25.2917 65.8917 23.8334 53 23.8334ZM39.875 67.5834C37.4542 67.5834 35.5 65.6292 35.5 63.2084C35.5 60.7875 37.4542 58.8334 39.875 58.8334C42.2958 58.8334 44.25 60.7875 44.25 63.2084C44.25 65.6292 42.2958 67.5834 39.875 67.5834ZM50.0833 50.0834H35.5V35.5H50.0833V50.0834ZM66.125 67.5834C63.7042 67.5834 61.75 65.6292 61.75 63.2084C61.75 60.7875 63.7042 58.8334 66.125 58.8334C68.5458 58.8334 70.5 60.7875 70.5 63.2084C70.5 65.6292 68.5458 67.5834 66.125 67.5834ZM70.5 50.0834H55.9167V35.5H70.5V50.0834Z" fill="white"/>
</svg>
