<svg width="106" height="106" viewBox="0 0 106 106" fill="none" xmlns="http://www.w3.org/2000/svg">
<rect width="106" height="106" fill="#772D8B"/>
<path d="M55 38.4167V26.75H25.8333V79.25H84.1667V38.4167H55ZM37.5 73.4167H31.6667V67.5833H37.5V73.4167ZM37.5 61.75H31.6667V55.9167H37.5V61.75ZM37.5 50.0833H31.6667V44.25H37.5V50.0833ZM37.5 38.4167H31.6667V32.5833H37.5V38.4167ZM49.1667 73.4167H43.3333V67.5833H49.1667V73.4167ZM49.1667 61.75H43.3333V55.9167H49.1667V61.75ZM49.1667 50.0833H43.3333V44.25H49.1667V50.0833ZM49.1667 38.4167H43.3333V32.5833H49.1667V38.4167ZM78.3333 73.4167H55V67.5833H60.8333V61.75H55V55.9167H60.8333V50.0833H55V44.25H78.3333V73.4167ZM72.5 50.0833H66.6667V55.9167H72.5V50.0833ZM72.5 61.75H66.6667V67.5833H72.5V61.75Z" fill="white"/>
</svg>
