<svg width="323" height="429" viewBox="0 0 323 429" fill="none" xmlns="http://www.w3.org/2000/svg">
<g filter="url(#filter0_d_2_197)">
<rect x="24" y="22" width="271" height="377" fill="white"/>
</g>
<rect x="105" y="51" width="106" height="106" fill="#772D8B"/>
<path d="M157.542 71.8334C143.862 71.8334 132.75 82.9459 132.75 96.625C132.75 110.304 143.862 121.417 157.542 121.417H159V130.167C173.175 123.342 182.333 109.75 182.333 96.625C182.333 82.9459 171.221 71.8334 157.542 71.8334ZM160.458 114.125H154.625V108.292H160.458V114.125ZM160.458 103.917H154.625C154.625 94.4375 163.375 95.1667 163.375 89.3334C163.375 86.125 160.75 83.5 157.542 83.5C154.333 83.5 151.708 86.125 151.708 89.3334H145.875C145.875 82.8875 151.096 77.6667 157.542 77.6667C163.987 77.6667 169.208 82.8875 169.208 89.3334C169.208 96.625 160.458 97.3542 160.458 103.917Z" fill="white"/>
<defs>
<filter id="filter0_d_2_197" x="0" y="0" width="323" height="429" filterUnits="userSpaceOnUse" color-interpolation-filters="sRGB">
<feFlood flood-opacity="0" result="BackgroundImageFix"/>
<feColorMatrix in="SourceAlpha" type="matrix" values="0 0 0 0 0 0 0 0 0 0 0 0 0 0 0 0 0 0 127 0" result="hardAlpha"/>
<feOffset dx="2" dy="4"/>
<feGaussianBlur stdDeviation="13"/>
<feColorMatrix type="matrix" values="0 0 0 0 0 0 0 0 0 0 0 0 0 0 0 0 0 0 0.07 0"/>
<feBlend mode="normal" in2="BackgroundImageFix" result="effect1_dropShadow_2_197"/>
<feBlend mode="normal" in="SourceGraphic" in2="effect1_dropShadow_2_197" result="shape"/>
</filter>
</defs>
</svg>
