<svg width="106" height="106" viewBox="0 0 106 106" fill="none" xmlns="http://www.w3.org/2000/svg">
<rect width="106" height="106" fill="#772D8B"/>
<path d="M52.5417 20.8334C38.8625 20.8334 27.75 31.9459 27.75 45.625C27.75 59.3042 38.8625 70.4167 52.5417 70.4167H54V79.1667C68.175 72.3417 77.3333 58.75 77.3333 45.625C77.3333 31.9459 66.2208 20.8334 52.5417 20.8334ZM55.4583 63.125H49.625V57.2917H55.4583V63.125ZM55.4583 52.9167H49.625C49.625 43.4375 58.375 44.1667 58.375 38.3334C58.375 35.125 55.75 32.5 52.5417 32.5C49.3333 32.5 46.7083 35.125 46.7083 38.3334H40.875C40.875 31.8875 46.0958 26.6667 52.5417 26.6667C58.9875 26.6667 64.2083 31.8875 64.2083 38.3334C64.2083 45.625 55.4583 46.3542 55.4583 52.9167Z" fill="white"/>
</svg>
